<?xml version="1.0" encoding="UTF-8" standalone="no"?>
<!DOCTYPE svg PUBLIC "-//W3C//DTD SVG 1.1//EN" "http://www.w3.org/Graphics/SVG/1.1/DTD/svg11.dtd">
<svg width="100%" height="100%" viewBox="0 0 2363 2363" version="1.1" xmlns="http://www.w3.org/2000/svg" xmlns:xlink="http://www.w3.org/1999/xlink" xml:space="preserve" xmlns:serif="http://www.serif.com/" style="fill-rule:evenodd;clip-rule:evenodd;stroke-linejoin:round;stroke-miterlimit:2;">
    <g transform="matrix(1.048471,0,0,1.048471,-79.683781,-120.574143)">
        <circle cx="1202.5" cy="1241.5" r="1126.5" style="fill:rgb(91,25,31);"/>
    </g>
    <g transform="matrix(3.189186,0,0,5.5414,2966.761089,-1885.347791)">
        <g>
            <path d="M-685.194,629.131C-634.369,629.131 -608.957,612.555 -608.957,579.404L-598.792,579.404L-598.792,634.981L-837.67,634.981L-837.67,629.131L-812.257,629.131L-812.257,477.026L-837.67,477.026L-837.67,471.176L-603.874,471.176L-603.874,520.902L-614.039,520.902C-614.039,503.547 -620.054,491.895 -632.082,485.948C-644.111,480 -663.509,477.026 -690.277,477.026L-736.02,477.026L-736.02,547.228L-715.69,547.228C-691.293,547.228 -675.877,545.473 -669.439,541.963C-663.001,538.453 -659.782,531.433 -659.782,520.902L-649.617,520.902L-649.617,579.404L-659.782,579.404C-659.782,568.484 -663.001,561.366 -669.439,558.051C-675.877,554.736 -691.293,553.078 -715.69,553.078L-736.02,553.078L-736.02,629.131L-685.194,629.131Z" style="fill:rgb(249,244,237);fill-rule:nonzero;"/>
            <path d="M-315.696,634.981C-315.696,630.496 -317.898,626.742 -322.303,623.719C-326.708,620.697 -332.383,619.185 -339.329,619.185C-346.275,619.185 -353.391,620.843 -360.676,624.158C-367.961,627.473 -376.432,630.837 -386.088,634.25C-395.745,637.662 -407.35,639.369 -420.904,639.369C-466.985,639.369 -502.647,632.543 -527.891,618.893C-553.134,605.243 -565.755,584.279 -565.755,556.004C-565.755,496.917 -517.81,467.373 -421.92,467.373C-404.64,467.373 -386.935,469.811 -368.808,474.686C-350.68,479.561 -339.583,481.999 -335.517,481.999C-331.451,481.999 -328.063,480.78 -325.352,478.342C-322.642,475.905 -321.286,473.516 -321.286,471.176L-311.63,471.176L-311.63,530.555L-321.795,530.555C-321.795,515.735 -331.875,502.474 -352.036,490.774C-372.196,479.074 -395.491,473.224 -421.92,473.224C-442.25,473.224 -457.667,479.512 -468.171,492.09C-478.675,504.668 -483.927,525.436 -483.927,554.395C-483.927,583.353 -478.59,603.78 -467.917,615.675C-457.244,627.571 -441.573,633.518 -420.904,633.518C-388.376,633.518 -372.111,616.845 -372.111,583.499L-372.111,561.854L-404.131,561.854L-404.131,556.004L-282.151,556.004L-282.151,561.854L-306.039,561.854L-306.039,634.981L-315.696,634.981Z" style="fill:rgb(249,244,237);fill-rule:nonzero;"/>
        </g>
    </g>
</svg>
