<?xml version="1.0" encoding="UTF-8" standalone="no"?>
<!DOCTYPE svg PUBLIC "-//W3C//DTD SVG 1.1//EN" "http://www.w3.org/Graphics/SVG/1.1/DTD/svg11.dtd">
<svg width="100%" height="100%" viewBox="0 0 2363 2363" version="1.1" xmlns="http://www.w3.org/2000/svg" xmlns:xlink="http://www.w3.org/1999/xlink" xml:space="preserve" xmlns:serif="http://www.serif.com/" style="fill-rule:evenodd;clip-rule:evenodd;stroke-linejoin:round;stroke-miterlimit:2;">
    <g transform="matrix(1.048471,0,0,1.048471,-79.683781,-120.574143)">
        <circle cx="1202.5" cy="1241.5" r="1126.5" style="fill:rgb(91,25,31);"/>
    </g>
    <g transform="matrix(1.906751,0,0,2.730543,-933.785109,-51.43495)">
        <path d="M665.562,628.73L665.562,274.048L778.872,274.048L778.872,628.73L665.562,628.73ZM752.253,628.73L752.253,560.657L1030.674,560.657L1030.674,628.73L752.253,628.73ZM752.253,480.778L752.253,414.715L1005.134,414.715L1005.134,480.778L752.253,480.778ZM752.253,342.121L752.253,274.048L1026.717,274.048L1026.717,342.121L752.253,342.121Z" style="fill:rgb(249,244,237);fill-rule:nonzero;"/>
        <path d="M1338.232,634.257C1301.061,634.257 1266.348,629.61 1234.094,620.315C1201.839,611.021 1173.661,598.043 1149.56,581.381C1125.459,564.718 1106.634,545.293 1093.085,523.104C1079.535,500.916 1072.761,476.927 1072.761,451.138C1072.761,425.181 1079.715,401.151 1093.624,379.046C1107.533,356.941 1126.838,337.599 1151.539,321.021C1176.239,304.442 1205.076,291.547 1238.051,282.337C1271.025,273.127 1306.457,268.521 1344.347,268.521C1387.992,268.521 1427.741,274.048 1463.593,285.1C1499.444,296.153 1529.001,311.475 1552.263,331.068L1475.643,384.572C1459.336,370.003 1440.151,358.992 1418.089,351.54C1396.026,344.088 1371.086,340.362 1343.268,340.362C1313.291,340.362 1286.612,344.967 1263.231,354.178C1239.849,363.388 1221.504,376.283 1208.194,392.861C1194.885,409.44 1188.23,428.782 1188.23,450.887C1188.23,472.992 1194.705,492.417 1207.654,509.163C1220.604,525.909 1238.35,538.971 1260.892,548.349C1283.435,557.727 1309.334,562.416 1338.591,562.416C1368.328,562.416 1393.688,558.522 1414.671,550.735C1435.655,542.948 1451.722,531.561 1462.873,516.573C1474.025,501.585 1479.6,483.458 1479.6,462.19L1554.781,497.106L1328.159,494.594L1328.159,428.028L1594.709,428.028L1594.709,439.583C1594.709,481.951 1583.798,517.62 1561.975,546.591C1540.152,575.561 1509.996,597.415 1471.506,612.152C1433.017,626.888 1388.592,634.257 1338.232,634.257Z" style="fill:rgb(249,244,237);fill-rule:nonzero;"/>
    </g>
</svg>
